<svg xmlns="http://www.w3.org/2000/svg" viewBox="0 0 512 512">
  <circle cx="256" cy="256" r="246" fill="#f57c00" stroke="#000" stroke-width="12"/>
  <path d="M256 10c-58.5 0-112.9 21.6-154.2 57.4 48 42.2 101.7 74 161.6 94.6 59.9-20.6 113.6-52.3 161.6-94.6C382.9 31.6 328.5 10 256 10zM103.1 86.1C48.8 135.6 15.2 206.5 10.9 285c67.7-12.8 131.8-41.9 187.4-85.8-45-21.8-80.9-47.7-110.6-77-3.5-3.7-6.9-7.5-10.2-11.3-10.3-8.2-18.5-16.9-25.7-26 17.3-4.7 34.1-8.2 51.3-10.8zM395.3 113.1c-3.3 3.8-6.7 7.7-10.2 11.3-29.8 29.3-65.6 55.2-110.6 77 55.6 43.9 119.7 72.9 187.4 85.8-4.3-78.5-37.8-149.4-92.2-198.9 7.2 9.1 15.4 17.8 25.6 26v-1.2zM90 142c18 20.7 39.6 39.4 64 55.9-45.5 42.2-99.4 73.1-158.2 90.9 2.7 25.8 9.1 50.4 18.8 73.2 33.6-12.3 65.6-28.8 95.2-49.2 1.8 3.4 3.5 6.8 5.4 10.1 34.6 62.1 89.4 109.5 156.1 131.7C165.1 454.5 74.8 424.2 25.7 367c1.3-1.6 2.6-3.2 3.8-4.8-2.7-13.2-4.1-26.9-4.1-40.9-.1-66.5 25.5-127 67.2-179.3H90zM276 218c15.7 10.2 32.4 19.4 50 27.5C346.6 264 368 283 386 305h-2.3c-41.7 52.4-67.3 112.8-67.3 179.3 0 14 1.4 27.7 4.1 40.9 1.3 1.6 2.5 3.2 3.8 4.8-49.1 57.2-139.4 87.4-245.5 87.6 66.6-22.1 121.5-69.6 156.1-131.7 1.9-3.3 3.6-6.7 5.4-10.1 29.6 20.3 61.6 36.9 95.2 49.2 9.7-22.8 16.1-47.4 18.8-73.2-58.8-17.8-112.8-48.7-158.2-90.9 24.5-16.5 46-35.2 64-55.9h-2.4c41.7-52.3 67.3-112.8 67.3-179.3 0-1.4 0-2.8-.1-4.1-18.2 25.6-39.7 48.4-64.5 68.2-4.3-.8-8.5-1.7-12.8-2.6z"/>
</svg>